<svg xmlns="http://www.w3.org/2000/svg" viewBox="0 0 100 100" fill="none">
  <!-- Stylized basket with vegetables -->
  <path d="M50 15C35 15 25 20 25 30L30 70C30 75 35 80 50 80C65 80 70 75 70 70L75 30C75 20 65 15 50 15Z" fill="#8FBC8F" stroke="#4A7C59" stroke-width="2"/>
  
  <!-- Basket weave pattern -->
  <path d="M30 35H70M35 45H65M40 55H60" stroke="#4A7C59" stroke-width="1" opacity="0.3"/>
  
  <!-- Vegetables in basket -->
  <!-- Carrot -->
  <ellipse cx="40" cy="35" rx="4" ry="10" fill="#FF8C42" transform="rotate(-15 40 35)"/>
  <path d="M38 28C38 28 36 25 37 23" stroke="#4A7C59" stroke-width="1"/>
  
  <!-- Tomato -->
  <circle cx="50" cy="38" r="6" fill="#D64545"/>
  <path d="M50 32C50 32 48 30 50 29C52 30 50 32 50 32Z" fill="#4A7C59"/>
  
  <!-- Lettuce -->
  <ellipse cx="60" cy="35" rx="7" ry="8" fill="#A8D5A8"/>
  <path d="M60 30C58 28 55 30 55 32C55 30 58 28 60 30ZM60 30C62 28 65 30 65 32C65 30 62 28 60 30Z" fill="#4A7C59" opacity="0.5"/>
  
  <!-- Handle -->
  <path d="M35 15C35 10 40 8 50 8C60 8 65 10 65 15" stroke="#6B4423" stroke-width="3" fill="none" stroke-linecap="round"/>
</svg>
