<svg xmlns="http://www.w3.org/2000/svg" viewBox="0 0 50 50" fill="none">
  <circle cx="25" cy="25" r="20" fill="#25D366"/>
  <path d="M35 15C32.5 12.5 29.5 11 26 11C18.8 11 13 16.8 13 24C13 26.3 13.6 28.5 14.7 30.4L13 37L19.8 35.3C21.6 36.3 23.7 36.9 25.9 36.9C33.1 36.9 38.9 31.1 38.9 23.9C39 20.5 37.5 17.4 35 15ZM26 34.8C24 34.8 22 34.2 20.3 33.2L19.9 33L16.1 34L17.1 30.3L16.9 29.9C15.8 28.1 15.2 26.1 15.2 24C15.2 17.9 20 13 26.1 13C29 13 31.7 14.2 33.6 16.2C35.6 18.2 36.8 20.9 36.8 23.9C36.7 30.1 31.9 34.8 26 34.8Z" fill="white"/>
  <path d="M31.7 26.7C31.4 26.5 29.9 25.8 29.6 25.7C29.3 25.6 29.1 25.5 28.9 25.8C28.7 26.1 28.1 26.9 27.9 27.1C27.7 27.3 27.5 27.3 27.2 27.2C26.9 27 25.9 26.7 24.7 25.6C23.7 24.7 23 23.6 22.8 23.3C22.6 23 22.8 22.8 22.9 22.7C23.1 22.5 23.3 22.3 23.4 22.1C23.5 21.9 23.6 21.8 23.7 21.6C23.8 21.4 23.7 21.2 23.7 21.1C23.6 20.9 23 19.4 22.7 18.8C22.5 18.2 22.2 18.3 22 18.3C21.8 18.3 21.6 18.3 21.4 18.3C21.2 18.3 20.8 18.4 20.6 18.6C20.3 18.9 19.5 19.6 19.5 21.1C19.5 22.6 20.6 24 20.7 24.2C20.8 24.4 23 27.5 26.3 28.8C29.6 30.1 29.6 29.7 30.2 29.6C30.8 29.5 32 28.9 32.3 28.2C32.6 27.5 32.6 26.9 32.5 26.8C32.3 26.9 32.1 26.8 31.7 26.7Z" fill="white"/>
</svg>
